<?xml version="1.0" encoding="UTF-8" standalone="no"?>
<svg
   viewBox="0 0 570 720"
   version="1.1"
   id="svg30"
   sodipodi:docname="Pi64_Platform.svg"
   inkscape:version="1.2.2 (b0a8486541, 2022-12-01)"
   xmlns:inkscape="http://www.inkscape.org/namespaces/inkscape"
   xmlns:sodipodi="http://sodipodi.sourceforge.net/DTD/sodipodi-0.dtd"
   xmlns="http://www.w3.org/2000/svg"
   xmlns:svg="http://www.w3.org/2000/svg">
  <defs
     id="defs34" />
  <sodipodi:namedview
     id="namedview32"
     pagecolor="#ffffff"
     bordercolor="#666666"
     borderopacity="1.0"
     inkscape:pageshadow="2"
     inkscape:pageopacity="0.0"
     inkscape:pagecheckerboard="0"
     showgrid="false"
     inkscape:zoom="1.0757661"
     inkscape:cx="84.126094"
     inkscape:cy="284.91324"
     inkscape:window-width="1706"
     inkscape:window-height="1243"
     inkscape:window-x="425"
     inkscape:window-y="79"
     inkscape:window-maximized="1"
     inkscape:current-layer="svg30"
     inkscape:showpageshadow="2"
     inkscape:deskcolor="#d1d1d1" />
  <path
     id="path2"
     d="M 158.38086 1.65625 C 154.76156 1.76857 150.86221 3.10555 146.44141 6.59375 C 135.61141 2.41745 125.11266 0.96655 115.72266 9.46875 C 101.22266 7.58795 96.509453 11.469 92.939453 16 C 89.756453 15.934 69.121203 12.72775 59.658203 26.84375 C 35.877203 24.02975 28.360953 40.832 36.876953 56.5 C 32.020053 64.019 26.987403 71.44725 38.345703 85.78125 C 34.327703 93.76475 36.818303 102.42525 46.283203 112.90625 C 43.785303 124.12925 48.695053 132.04775 57.501953 138.21875 C 55.854853 153.57675 71.586203 162.5055 76.283203 165.6875 C 78.086903 174.6362 81.846353 183.07905 99.814453 187.74805 C 102.77765 201.08405 113.5762 203.3885 124.0332 206.1875 C 89.471239 226.2775 59.832203 252.70941 60.033203 317.56641 L 54.970703 326.59766 C 15.340703 350.69766 -20.313594 428.15914 35.441406 491.11914 C 39.083306 510.82714 45.190506 524.98144 50.628906 540.64844 C 58.762706 603.77944 111.84666 633.34189 125.84766 636.83789 C 146.36466 652.46589 168.21516 667.29464 197.78516 677.68164 C 225.66016 706.43064 255.86061 717.38714 286.22461 717.36914 C 286.66976 717.36886 287.12309 717.37414 287.56836 717.36914 C 317.93236 717.38804 348.12986 706.43164 376.00586 677.68164 C 405.57486 667.29464 427.42636 652.46589 447.94336 636.83789 C 461.94436 633.34199 515.02811 603.77944 523.16211 540.64844 C 528.60001 524.98144 534.70956 510.82714 538.35156 491.11914 C 594.10556 428.15414 558.45131 350.68789 518.82031 326.58789 L 513.75 317.55859 C 513.95067 252.70659 484.312 226.27273 449.75 206.17773 C 460.207 203.37933 471.00575 201.07683 473.96875 187.74023 C 491.93675 183.07043 495.697 174.62573 497.5 165.67773 C 502.1978 162.49643 517.92825 153.56698 516.28125 138.20898 C 525.08795 132.03738 529.998 124.11848 527.5 112.89648 C 536.9649 102.41548 539.456 93.755484 535.4375 85.771484 C 546.7975 71.443484 541.75625 64.017047 536.90625 56.498047 C 545.41625 40.830047 537.90719 24.027797 514.11719 26.841797 C 504.65719 12.725797 484.02789 15.932047 480.83789 15.998047 C 477.26789 11.467047 472.55664 7.5859969 458.05664 9.4667969 C 448.66664 0.96459661 438.16789 2.4153969 427.33789 6.5917969 C 414.47789 -3.5562031 405.96805 4.5785969 396.24805 7.6542969 C 380.67805 2.5665969 377.1168 9.5352457 369.4668 12.373047 C 352.4868 8.7849457 347.3275 16.596797 339.1875 24.841797 L 329.71875 24.654297 C 304.10775 39.747297 291.385 70.480297 286.875 86.279297 C 282.3629 70.477297 269.6685 39.744297 244.0625 24.654297 L 234.59375 24.841797 C 226.44375 16.596797 221.28273 8.7850457 204.30273 12.373047 C 196.65273 9.5352457 193.10344 2.5665969 177.52344 7.6542969 C 171.1481 5.6371782 165.28371 1.4480255 158.38086 1.65625 z M 416.03906 19.785156 C 412.4831 24.181856 407.51576 28.474591 412.78516 33.525391 C 420.04816 28.921091 427.35647 24.323381 444.60547 21.050781 C 440.71837 25.450081 432.68229 29.848747 437.55469 34.248047 C 446.67369 30.712047 456.76273 28.144897 467.92773 26.654297 C 462.58153 31.118297 458.12201 35.491519 462.50391 38.949219 C 472.26291 35.901479 485.70575 31.794831 498.84375 35.332031 L 490.52734 43.830078 C 489.60434 44.967228 509.98164 44.716286 523.43164 44.916016 C 518.52314 51.838016 513.518 58.51725 510.5957 70.40625 C 511.9287 71.77735 518.59451 71.01563 524.87891 70.40625 C 518.43491 84.17865 507.24131 87.655328 504.62891 93.548828 C 508.56591 96.574728 514.02845 95.787969 519.99805 93.730469 C 515.35905 103.43347 505.62921 110.08088 497.94141 117.95508 C 499.88541 119.35546 503.28031 120.19122 511.32031 119.2207 C 504.21731 126.8847 495.63484 133.89266 485.46484 140.19336 C 487.26584 142.30606 493.45988 142.22265 499.20508 142.36328 C 489.99308 151.51628 478.13739 156.2618 467.02539 162.25 C 472.56419 166.0915 476.52237 165.19498 480.76367 165.14258 C 472.90467 171.69718 459.54272 175.10775 447.13672 179.06445 C 449.49612 182.78685 451.85629 183.80461 456.90039 184.84961 C 443.76939 192.22662 424.96075 188.85325 419.65625 192.62305 C 420.93685 196.33095 424.54855 198.74507 428.87695 200.75977 C 407.73695 202.00577 349.92184 199.97855 338.83984 155.56055 C 360.479 131.42149 399.97697 103.09266 467.91211 68.060547 C 415.05512 86.020881 367.36379 109.96095 327.44922 142.9043 C 280.51972 120.7223 312.87063 64.776453 335.76562 42.564453 C 336.92654 48.429753 338.24049 52.137069 339.74219 53.230469 C 347.19719 45.118469 353.28817 36.812359 362.88477 29.005859 C 362.91597 33.590859 360.60691 38.565225 366.32031 42.203125 C 371.46531 35.176125 378.4201 28.904731 387.6543 23.582031 C 383.2066 31.368631 386.89005 33.733837 389.28125 36.960938 C 396.33425 30.821938 403.03306 24.602156 416.03906 19.785156 z M 159.28516 19.791016 C 172.29116 24.608016 178.98997 30.825844 186.04297 36.964844 C 188.43417 33.737744 192.11958 31.372537 187.67188 23.585938 C 196.90607 28.908638 203.86086 35.181984 209.00586 42.208984 C 214.71926 38.571084 212.40825 33.594766 212.43945 29.009766 C 222.03605 36.816266 228.12703 45.124328 235.58203 53.236328 C 237.08373 52.142928 238.39965 48.433659 239.56055 42.568359 C 262.45555 64.780359 294.80645 120.7262 247.87695 142.9082 C 207.95868 109.98612 160.28853 86.051486 107.46289 68.09375 C 175.36564 103.1072 214.84831 131.4343 236.48047 155.56055 C 225.39847 199.97855 167.58336 202.00577 146.44336 200.75977 C 150.77176 198.74507 154.38346 196.33095 155.66406 192.62305 C 150.35956 188.85325 131.55092 192.22662 118.41992 184.84961 C 123.46402 183.80461 125.82419 182.78685 128.18359 179.06445 C 115.77759 175.10775 102.41369 171.69718 94.554688 165.14258 C 98.795986 165.19498 102.75612 166.0915 108.29492 162.25 C 97.182946 156.2618 85.327234 151.51628 76.115234 142.36328 C 81.860434 142.22265 88.052516 142.30606 89.853516 140.19336 C 79.683516 133.89266 71.103 126.8847 64 119.2207 C 72.04 120.19122 75.434906 119.35546 77.378906 117.95508 C 69.691106 110.08088 59.961266 103.43347 55.322266 93.730469 C 61.291866 95.787969 66.752453 96.574728 70.689453 93.548828 C 68.077053 87.655328 56.885406 84.17865 50.441406 70.40625 C 56.725806 71.01563 63.391609 71.77735 64.724609 70.40625 C 61.807609 58.52225 56.801578 51.841922 51.892578 44.919922 C 65.342578 44.719922 85.721828 44.972937 84.798828 43.835938 L 76.482422 35.337891 C 89.620422 31.800691 103.06327 35.905385 112.82227 38.953125 C 117.20417 35.495425 112.74464 31.124156 107.39844 26.660156 C 118.56344 28.150756 128.65248 30.717906 137.77148 34.253906 C 142.64388 29.854606 134.6078 25.453986 130.7207 21.054688 C 147.9697 24.327288 155.27802 28.924997 162.54102 33.529297 C 167.81042 28.478497 162.84112 24.187716 159.28516 19.791016 z M 283.10938 202.75391 C 284.27733 202.72749 285.44717 202.72928 286.61914 202.75977 C 319.89714 202.39377 361.10039 227.59008 360.93555 251.33008 C 360.79055 272.28408 331.998 289.24704 286.875 288.92383 C 242.689 288.39683 212.93249 267.60869 213.03711 247.30469 C 213.12139 231.11688 246.90237 203.57267 283.10938 202.75391 z M 173.375 216.88477 C 180.81439 216.74609 188.50438 217.32414 196.35938 218.65039 C 219.50937 222.54039 85.416609 339.62977 83.349609 313.50977 C 81.503359 253.89602 121.29924 217.85547 173.375 216.88477 z M 392.95312 218.88477 C 445.0265 219.85402 484.82672 255.88881 482.98047 315.50781 C 480.91357 341.62881 346.8207 224.53939 369.9707 220.65039 C 377.82508 219.32414 385.51407 218.7463 392.95312 218.88477 z M 372.24805 291.69531 A 86.129673 72.998838 55.965774 0 1 427.44922 445.67969 A 86.129673 72.998838 55.965774 0 1 332.48242 301.9668 A 86.129673 72.998838 55.965774 0 1 372.24805 291.69531 z M 201.69336 295.69531 A 72.998838 86.129673 34.034226 0 1 241.45898 305.9668 A 72.999274 86.130187 34.034226 0 1 146.49023 449.67969 A 72.998838 86.129673 34.034226 0 1 201.69336 295.69531 z M 490.44141 339.66406 C 491.46279 339.64712 492.54175 339.78494 493.67969 340.08984 C 554.09569 374.58984 543.60067 451.35731 511.01367 477.57031 C 482.31445 490.31906 458.77855 340.18918 490.44141 339.66406 z M 76.148438 341.66211 C 107.8079 342.184 84.275391 492.3093 55.576172 479.56055 C 22.989172 453.35055 12.494156 376.58984 72.910156 342.08984 C 74.047969 341.78484 75.127165 341.64527 76.148438 341.66211 z M 291.33984 444.95703 A 81.389935 75.051403 0 0 1 369.94141 520.36133 A 81.389935 75.051403 0 1 1 207.16406 520.36133 A 81.389935 75.051403 0 0 1 282.97852 445.08984 A 81.389935 75.051403 0 0 1 291.33984 444.95703 z M 468.44531 473.24414 C 474.80275 473.07841 480.75314 474.86317 486.11914 479.01367 C 500.56834 493.41167 509.04405 547.62875 483.74805 580.09375 C 448.91105 628.43175 401.74964 630.31361 384.18164 616.84961 C 365.80764 599.51961 379.83253 545.71294 405.01953 516.21094 L 405.01953 516.20117 C 426.63603 491.79385 449.373 473.74132 468.44531 473.24414 z M 100.54102 484.73438 C 121.51974 484.30365 147.26877 500.88242 168.14062 525.09961 C 191.41962 553.14561 202.03052 602.41836 182.60352 616.94336 C 164.22452 628.03136 119.59119 623.46618 87.867188 577.89258 C 66.472188 539.65058 69.229853 500.73473 84.251953 489.30273 C 89.165953 486.30936 94.666961 484.85498 100.54102 484.73438 z M 295.1582 619.00781 C 326.92016 619.20388 365.48578 630.64312 365.56641 645.51562 C 366.10911 660.92062 325.77623 695.72769 286.74023 695.05469 C 246.31323 696.79859 206.67241 661.93847 207.19141 649.85547 C 206.58635 632.13947 256.41716 618.30614 288.91016 619.11914 C 290.95372 619.02995 293.04074 618.99474 295.1582 619.00781 z " />
  <text
     xml:space="preserve"
     style="font-style:normal;font-weight:normal;font-size:96px;line-height:1.25;font-family:sans-serif;letter-spacing:0px;word-spacing:0px;fill:#000000;fill-opacity:1;stroke:none"
     x="451.84756"
     y="710.90039"
     id="text1567"><tspan
       sodipodi:role="line"
       id="tspan1565"
       x="451.84756"
       y="710.90039"
       style="font-style:normal;font-variant:normal;font-weight:normal;font-stretch:normal;font-size:96px;font-family:'Liberation Sans';-inkscape-font-specification:'Liberation Sans, Normal';font-variant-ligatures:normal;font-variant-caps:normal;font-variant-numeric:normal;font-variant-east-asian:normal">64</tspan></text>
</svg>
