<?xml version="1.0" encoding="UTF-8" standalone="no"?>
<!-- Created with Inkscape (http://www.inkscape.org/) -->

<svg
   xmlns:dc="http://purl.org/dc/elements/1.1/"
   xmlns:cc="http://creativecommons.org/ns#"
   xmlns:rdf="http://www.w3.org/1999/02/22-rdf-syntax-ns#"
   xmlns:svg="http://www.w3.org/2000/svg"
   xmlns="http://www.w3.org/2000/svg"
   xmlns:sodipodi="http://sodipodi.sourceforge.net/DTD/sodipodi-0.dtd"
   xmlns:inkscape="http://www.inkscape.org/namespaces/inkscape"
     viewBox="0 0 64 64"
   version="1.1"
   id="SVGRoot"
   inkscape:version="0.92.4 5da689c313, 2019-01-14"
   sodipodi:docname="features_icon.svg.2020_04_15_20_33_18.0.svg"
   inkscape:export-filename="/home/alevy/dev/ossia-website/assets/icons/blog.png"
   inkscape:export-xdpi="96"
   inkscape:export-ydpi="96">
  <defs
     id="defs10" />
  <sodipodi:namedview
     id="base"
     pagecolor="#ffffff"
     bordercolor="#666666"
     borderopacity="1.0"
     inkscape:pageopacity="0.0"
     inkscape:pageshadow="2"
     inkscape:zoom="4.6079619"
     inkscape:cx="-26.299065"
     inkscape:cy="34.194661"
     inkscape:document-units="px"
     inkscape:current-layer="layer2"
     showgrid="true"
     inkscape:window-width="1920"
     inkscape:window-height="1015"
     inkscape:window-x="0"
     inkscape:window-y="0"
     inkscape:window-maximized="1"
     inkscape:grid-bbox="true"
     inkscape:snap-global="false">
    <inkscape:grid
       type="xygrid"
       id="grid849" />
  </sodipodi:namedview>
  <metadata
     id="metadata13">
    <rdf:RDF>
      <cc:Work
         rdf:about="">
        <dc:format>image/svg+xml</dc:format>
        <dc:type
           rdf:resource="http://purl.org/dc/dcmitype/StillImage" />
        <dc:title />
      </cc:Work>
    </rdf:RDF>
  </metadata>
  <g
     inkscape:groupmode="layer"
     id="layer3"
     inkscape:label="original 2"
     style="display:inline" />
  <g
     inkscape:groupmode="layer"
     id="layer2"
     inkscape:label="original"
     style="display:inline">
    <path
       style="opacity:1;vector-effect:none;fill:#03c3dd;fill-opacity:1;fill-rule:nonzero;stroke:#03c3dd;stroke-width:4.36590958;stroke-linecap:round;stroke-linejoin:round;stroke-miterlimit:4;stroke-dasharray:none;stroke-dashoffset:1.5;stroke-opacity:1;paint-order:markers fill stroke"
       d="m 34.262698,13.689451 -2.623047,6.015625 a 12.817045,12.817045 0 0 0 -3.845703,0.771484 l -1.478516,-1.130859 -3.419922,-3.525391 -1.746094,1.314453 2.015625,4.152344 0.341797,1.814453 a 12.817045,12.817045 0 0 0 -2.777343,3.724609 l -6.863282,0.914063 -0.02344,2.533203 5.546875,2.136719 a 12.817045,12.817045 0 0 0 -0.0039,0.08984 12.817045,12.817045 0 0 0 0.697265,4.121093 l -3.955078,5.173828 1.324219,1.802735 5.447265,-2.291016 a 12.817045,12.817045 0 0 0 3.964844,2.832031 l 0.800781,5.996094 2.302735,0.175782 2.02539,-5.001954 a 12.817045,12.817045 0 0 0 0.210938,0.0098 12.817045,12.817045 0 0 0 4.890625,-0.980469 l 4.625,3.535157 1.572266,-1.017579 -2.023438,-5.304687 a 12.817045,12.817045 0 0 0 2.875,-4.425781 l 5.914062,-0.789063 0.09961,-2.226562 -5.15625,-2.150391 a 12.817045,12.817045 0 0 0 -1.078128,-4.609405 l 3.875,-5.068359 -1.171875,-1.650391 -5.88086,2.332031 a 12.817045,12.817045 0 0 0 -3.585937,-2.28125 l -0.898437,-6.740234 z m -2.244141,6.285156 a 12,12 0 0 1 12,12 12,12 0 0 1 -12,12 12,12 0 0 1 -12,-12 12,12 0 0 1 12,-12 z"
       id="path9"
       inkscape:connector-curvature="0" />
  </g>
  <g
     inkscape:groupmode="layer"
     id="layer1"
     inkscape:label="original 1" />
</svg>
